<?xml version="1.0" encoding="utf-8" ?>
<svg xmlns="http://www.w3.org/2000/svg" xmlns:xlink="http://www.w3.org/1999/xlink" width="1024" height="1024">
	<path fill="#3C3C3B" transform="scale(2 2)" d="M119.668 68.4278C124.437 67.9351 129.356 68.411 134.145 68.4193L181.251 68.4106C190.677 68.3461 199.612 67.7241 199.95 79.9876C200.301 92.7119 199.985 105.533 199.98 118.266L199.973 130.729C199.967 137.706 200.382 145.111 191.857 147.343C188.01 148.351 172.934 147.735 167.825 147.719L167.825 161.096L205.898 161.09C233.392 161.086 232.902 159.853 232.904 190.043L232.912 234.285C236.573 237.513 239.799 241.622 243.256 245.109L243.256 147.719C237.833 147.711 223.927 148.358 219.59 147.27C210.337 144.948 212.082 133.892 212.106 126.719L212.086 88.276C212.007 67.6842 215.413 68.4109 235.243 68.4148L279.828 68.4271C291.031 68.4348 300.209 67.9391 300.597 82.4246C300.916 94.3134 300.632 106.287 300.626 118.183C300.622 126.165 302.838 138.905 296.672 145.064C293.052 148.679 287.361 147.78 282.749 147.755L268.833 147.719L268.833 307.133C273.23 303.759 277.064 299.105 281.051 295.219C292.339 284.212 303.356 272.915 314.747 262.017L314.747 241.118C307.523 241.522 288.991 242.514 284.175 238.123C277.577 232.107 279.248 223.949 279.243 215.856L279.238 192.679C279.239 187.443 278.668 174.543 279.642 169.993C282.169 158.201 298.649 161.087 307.271 161.091L344.522 161.096C344.667 156.653 344.53 152.167 344.522 147.719C338.459 147.742 320.497 149.124 316.171 145.168C310.722 140.186 312.322 129.578 312.321 122.908L312.302 87.4319C312.298 65.5116 320.633 68.4282 340.036 68.4204L381.611 68.4229C403.217 68.4616 402.309 73.2891 402.316 93.3421L402.319 130.954C402.339 153.193 387.322 147.763 369.44 147.719L369.44 161.096L433.609 161.086C457.36 161.088 453.38 170.252 453.382 190.845L453.427 228.588C453.549 246.413 433.146 241.137 420.287 241.118L420.287 261.001L442.96 260.991C446.785 260.991 458.266 259.226 458.686 264.177C459.903 278.519 458.947 299.508 458.746 314.155C458.279 315.058 457.779 315.899 456.763 316.262C454.927 316.917 409.394 317.472 405.52 315.769C403.879 312.985 404.637 289.507 404.643 284.717C394.042 284.993 383.357 284.716 372.749 284.717L372.749 321.25C389.966 321.102 388.758 317.851 388.758 334.633L388.731 353.972C388.719 358.303 389.778 370.775 387.51 373.787C383.608 374.937 379.154 374.415 375.14 374.415L342.127 374.401C337.509 374.393 330.621 376.118 330.33 369.641C330.028 362.954 330.445 356.103 330.425 349.394L330.397 333.98C330.392 317.84 329.958 321.172 348.082 321.25C348.248 309.082 348.082 296.887 348.082 284.717L326.238 284.717C314.446 297.621 299.951 311.148 287.397 323.386C283.561 327.125 270.977 338.662 268.833 342.463L268.833 376.355C271.612 376.554 274.459 376.384 277.246 376.376L293.064 376.323C306.791 376.246 305.507 375.752 305.491 388.313L305.491 425.097C305.498 432.464 308.26 440.345 300.231 440.498C292.511 440.645 284.759 440.513 277.034 440.507L218.773 440.514C213.267 440.567 206.937 442.977 206.702 435.42C206.367 424.64 206.754 413.743 206.734 402.947L206.709 388.17C206.689 373.591 207.189 376.325 220.976 376.337L243.256 376.355C243.427 366.678 243.258 356.958 243.256 347.278C236.697 341.048 230.508 334.432 224.126 328.028L180.771 284.717C175.39 284.634 169.992 284.653 164.61 284.717L164.61 320.448C171.018 320.476 181.517 317.392 181.855 325.349C182.061 330.211 182.268 371.47 181.522 372.833C179.853 375.878 165.764 374.411 162.621 374.411L139.949 374.407C125.549 374.402 123.258 377.699 123.245 362.417L123.255 334.097C123.238 317.416 122.787 320.292 140.627 320.448L140.627 284.717C137.261 284.356 133.692 284.695 130.295 284.702L108.514 284.717C108.52 288.769 109.222 313.326 107.837 315.175C105.938 317.708 60.1548 316.548 55.016 316.497C51.1444 313.995 52.6597 307.178 52.6626 303.167L52.6499 271.907C52.6279 258.885 56.2886 261.993 68.2436 262L91.9508 262.017L91.9508 241.118C82.8028 240.42 59.3038 245.522 58.7227 230.849C58.535 226.109 58.6821 221.317 58.6827 216.57L58.6708 176.924C58.66 162.831 60.8411 161.069 76.1263 161.082L89.287 161.086C106.87 161.089 124.483 161.312 142.063 161.096L142.063 147.719L127.656 147.742C113.452 147.75 109.769 146.566 109.77 131.298L109.779 93.0574C109.784 83.5105 107.064 70.424 119.668 68.4278ZM189.184 259.101C191.659 261.288 193.819 263.894 196.131 266.26L232.934 303.48C236.408 307.005 240.154 310.287 243.256 314.155L243.269 289.857C243.272 285.925 243.496 281.856 243.256 277.937C231.242 266.559 217.925 253.151 206.731 241.118C203.509 240.762 200.124 241.084 196.876 241.106L116.709 241.118C116.675 250.855 113.478 259.251 126.716 259.16L181.712 259.083C184.185 259.072 186.722 258.896 189.184 259.101ZM167.825 168.134C167.827 169.474 167.842 170.815 167.825 172.155L223.241 172.155L223.242 207.034C223.241 212.693 223.508 218.513 223.241 224.149C224.048 225.443 224.946 226.475 225.997 227.574L226.001 193.037C226.001 186.788 227.786 172.385 223.241 168.134L184.881 168.158C179.279 168.164 173.389 167.667 167.825 168.134ZM446.268 171.539C443.128 167.043 438.916 168.133 434.016 168.131L373.765 168.134L373.765 172.155L433.003 172.149C435.974 172.151 439.086 171.958 442.013 172.546C444.204 174.901 442.95 197.729 442.951 202.018L442.999 219.865C443.015 224.555 444.038 230.33 440.959 234.285C447.798 234.003 446.326 229.169 446.294 224.132L446.268 171.539ZM290.49 140.637C291.888 140.228 292.852 139.648 293.305 138.153C294.128 135.441 293.66 87.4804 293.485 82.3784C293.166 73.0719 285.038 75.4953 277.678 75.4958L235.195 75.4908C226.588 75.4643 219.879 72.4487 218.816 82.0836L219.046 82.7579C220.782 82.506 219.581 79.1423 231.282 79.2117L273.688 79.2293C278.022 79.2293 285.154 78.6495 289.229 79.6531C291.675 81.9651 290.497 100.416 290.497 104.001L290.49 140.637ZM395.35 260.192L395.35 241.118C390.042 241.266 384.718 241.102 379.408 241.118L354.815 241.123C349.704 241.131 344.557 241.279 339.45 241.118L339.45 260.192L354.969 260.192L395.35 260.192ZM190.409 79.2411C190.587 86.0727 190.412 92.9413 190.41 99.7774L190.409 140.637C195.55 139.529 193.047 112.2 193.05 106.734L193.072 89.9928C193.198 70.528 191.871 75.4985 172.064 75.5057L135.361 75.4975C129.44 75.494 118.229 72.8953 116.709 79.2411L117.071 79.5749C122.533 77.9818 129.845 79.2393 135.595 79.2424L174.248 79.2429C178.779 79.2397 186.225 78.7307 190.409 79.2411ZM288.976 168.134C287.786 169.384 286.913 170.561 286.228 172.155L347.004 172.151C352.588 172.168 358.182 172.03 363.763 172.155L363.763 234.285L366.849 234.285L366.849 168.134C363.184 167.914 359.408 168.111 355.73 168.122L335.994 168.135C320.347 168.137 304.613 167.769 288.976 168.134Z"/>
	<path fill="#CDD07D" transform="scale(2 2)" d="M250.16 147.719L261.825 147.719L261.834 294.867C261.836 299.407 259.473 318.931 265.671 319.047C268.866 319.107 316.926 269.472 321.756 264.805L321.756 241.118L332.43 241.118L332.404 256.22C332.395 260.385 330.778 267.112 336.735 267.256C348.343 267.537 385.341 268.761 395.582 266.782C405.032 264.956 402.321 249.179 402.319 241.118L413.601 241.118C413.691 247.741 413.603 254.376 413.601 261.001C402.345 261.881 404.573 268.727 404.643 277.937L382.022 277.93C376.887 277.929 366.342 275.754 365.812 281.846C365.432 286.207 365.713 290.827 365.714 295.217L365.731 321.25L354.969 321.25L354.975 295.132C354.976 290.669 356.174 282.224 353.848 278.263C352.255 277.602 326.851 277.758 323.214 277.937C320.261 280.337 317.648 283.382 314.978 286.098L274.906 325.823C270.585 330.111 265.414 334.323 261.825 339.238C261.956 351.605 261.826 363.987 261.825 376.355C259.574 376.707 252.479 376.657 250.16 376.355L250.16 344.822C247.412 340.309 232.786 326.602 228.052 322.061C223.824 318.136 219.893 313.874 215.853 309.759L195.488 289.26C191.442 285.245 187.481 280.925 183.038 277.355C177.893 277.156 158.676 275.396 157.688 280.768C155.955 290.191 157.808 309.793 157.396 320.448L147.604 320.448L147.614 295.341C147.615 275.155 151.344 277.329 131.754 277.339L108.514 277.355C108.401 266.137 111.668 261.822 98.7254 262.017L98.7254 241.118C102.29 240.855 106.224 240.831 109.784 241.118C109.855 250.225 107.143 263.443 120.239 266.081C122.993 266.636 126.006 266.373 128.804 266.354L186.69 266.339C190.214 270.781 194.468 274.625 198.438 278.656L235.91 316.409C250.712 331.516 250.169 331.837 250.166 307.363C250.164 296.796 250.277 286.217 250.16 275.651C247.81 271.775 244.162 268.971 241.002 265.798L203.61 227.94C200.275 224.588 196.937 220.627 193.06 217.938L193.06 205.708C203.513 213.22 219.415 230.412 228.513 239.749L239.703 251.027C252.818 264.03 250.232 251.22 250.173 240.297L250.16 147.719Z"/>
	<path fill="#0D9BA6" transform="scale(2 2)" d="M65.6953 174.225C65.7004 165.524 71.0357 168.133 78.9655 168.131L160.876 168.134L160.876 233.748L157.396 233.748L80.5968 233.751C64.1704 233.742 65.7025 235.278 65.6994 220.549L65.6893 182.579C65.6774 179.833 65.3813 176.943 65.6953 174.225Z"/>
	<path fill="white" transform="scale(2 2)" d="M65.6953 174.225C65.7004 165.524 71.0357 168.133 78.9655 168.131L160.876 168.134L160.876 233.748L157.396 233.748C157.235 229.993 157.389 226.163 157.391 222.401L157.388 182.499C157.375 179.056 157.192 175.593 157.396 172.155L67.9297 172.155C67.1154 172.75 66.4131 173.518 65.6953 174.225Z"/>
	<path fill="#CDD07D" transform="scale(2 2)" d="M319.357 80.2669C320.992 73.1129 335.403 75.4923 341.645 75.4903L367.269 75.4916C400.231 75.5067 395.378 71.0056 395.353 106.384L395.316 127.264C395.332 131.67 397.219 139.441 391.313 140.637C389.13 140.2 378.534 140.631 375.409 140.633L342.799 140.643C338.858 140.643 322.424 141.852 319.764 139.015C318.057 133.542 319.349 103.856 319.356 96.0367L319.365 84.755C319.364 83.3086 319.114 81.6711 319.357 80.2669Z"/>
	<path fill="white" transform="scale(2 2)" d="M319.357 80.2669C320.992 73.1129 335.403 75.4923 341.645 75.4903L367.269 75.4916C400.231 75.5067 395.378 71.0056 395.353 106.384L395.316 127.264C395.332 131.67 397.219 139.441 391.313 140.637C393.772 132.687 392.244 112.617 392.25 103.547L392.297 90.6288C392.408 78.179 392.306 79.1904 379.053 79.2279L363.574 79.2457C351.4 79.2428 338.675 78.7894 326.558 79.2422C324.762 79.3093 320.618 80.4277 319.357 80.2669Z"/>
	<path fill="#0D9BA6" transform="scale(2 2)" d="M286.228 172.155L347.004 172.151C352.588 172.168 358.182 172.03 363.763 172.155L363.763 234.285L316.033 234.275C308.522 234.277 299.625 234.764 292.264 234.212C284.363 233.618 286.204 222.731 286.218 217.292L286.209 181.314C286.19 178.303 285.954 175.144 286.228 172.155Z"/>
	<path fill="#FECB5B" transform="scale(2 2)" d="M116.709 79.2411L117.071 79.5749C122.533 77.9818 129.845 79.2393 135.595 79.2424L174.248 79.2429C178.779 79.2397 186.225 78.7307 190.409 79.2411C190.587 86.0727 190.412 92.9413 190.41 99.7774L190.409 140.637L128.878 140.651C125.288 140.655 117.114 142.232 116.784 137.121C116.36 130.552 116.699 123.768 116.702 117.18L116.709 79.2411Z"/>
	<path fill="#FECB5B" transform="scale(2 2)" d="M218.816 82.0836L219.046 82.7579C220.782 82.506 219.581 79.1423 231.282 79.2117L273.688 79.2293C278.022 79.2293 285.154 78.6495 289.229 79.6531C291.675 81.9651 290.497 100.416 290.497 104.001L290.49 140.637C287.575 140.181 282.832 140.621 279.687 140.623L241.153 140.64C215.432 140.656 218.802 145.152 218.804 122C218.805 108.714 219.11 95.3615 218.816 82.0836Z"/>
	<path fill="#FD7069" transform="scale(2 2)" d="M373.765 172.155L433.003 172.149C435.974 172.151 439.086 171.958 442.013 172.546C444.204 174.901 442.95 197.729 442.951 202.018L442.999 219.865C443.015 224.555 444.038 230.33 440.959 234.285C418.577 233.999 396.152 234.28 373.765 234.285C374.002 213.587 373.766 192.856 373.765 172.155Z"/>
	<path fill="#FECB5B" transform="scale(2 2)" d="M213.748 383.438L295.605 383.438C296.526 383.444 297.603 383.327 298.449 383.727C299.15 387.481 298.669 395.233 298.668 399.375L298.658 433.634L295.605 433.634C268.331 433.633 241.017 433.95 213.748 433.634L213.748 383.438Z"/>
	<path fill="white" transform="scale(2 2)" d="M295.605 383.438C296.526 383.444 297.603 383.327 298.449 383.727C299.15 387.481 298.669 395.233 298.668 399.375L298.658 433.634L295.605 433.634C295.312 416.916 295.713 400.162 295.605 383.438Z"/>
	<path fill="#0D9BA6" transform="scale(2 2)" d="M167.825 233.748L167.825 168.134C167.827 169.474 167.842 170.815 167.825 172.155L223.241 172.155L223.242 207.034C223.241 212.693 223.508 218.513 223.241 224.149C219.815 221.978 216.912 218.735 214.024 215.909L200.307 202.254C190.412 192.285 186.744 189.487 186.704 206.837C186.667 222.988 186.186 221.964 199.97 233.748C189.265 233.591 178.532 233.745 167.825 233.748Z"/>
	<path fill="#FD7069" transform="scale(2 2)" d="M130.242 327.759L175.009 327.759L175.009 367.509L130.242 367.509L130.242 327.759Z"/>
	<path fill="#3C3C3B" transform="scale(2 2)" d="M140.627 335.315L164.61 335.315L164.61 359.739L140.627 359.739L140.627 335.315Z"/>
	<path fill="#77CAD7" transform="scale(2 2)" d="M147.604 342.463L157.396 342.463L157.396 352.772L147.604 352.772C146.926 349.966 147.606 345.496 147.604 342.463Z"/>
	<path fill="#FD7069" transform="scale(2 2)" d="M337.236 327.759L381.825 327.759L381.825 367.509L337.236 367.509L337.236 327.759Z"/>
	<path fill="#3C3C3B" transform="scale(2 2)" d="M348.082 336.105L371.75 336.105L371.75 359.739C363.911 360.06 355.935 359.751 348.082 359.739L348.082 336.105Z"/>
	<path fill="#77CAD7" transform="scale(2 2)" d="M354.462 343.066L364.796 343.066L364.796 352.772L354.462 352.772L354.462 343.066Z"/>
	<path fill="#FD7069" transform="scale(2 2)" d="M420.287 267.892L451.953 267.892L451.953 309.686L443.875 309.686L411.444 309.686L411.444 267.892L420.287 267.892Z"/>
	<path fill="#3C3C3B" transform="scale(2 2)" d="M419.176 277.355L442.973 277.355L442.973 301.967C436.819 302.597 425.476 302.147 419.176 301.967L419.176 277.355Z"/>
	<path fill="#77CAD7" transform="scale(2 2)" d="M426.267 284.077C429.583 284.017 432.905 284.064 436.222 284.077C436.24 287.808 436.301 291.545 436.222 295.275L426.267 295.275C426.297 292.731 425.685 286.151 426.267 284.077Z"/>
	<path fill="#FD7069" transform="scale(2 2)" d="M59.513 269.199L101.575 269.199L101.575 309.686L59.513 309.686L59.513 269.199Z"/>
	<path fill="#3C3C3B" transform="scale(2 2)" d="M68.7691 277.355L91.9508 277.355L91.9508 301.967L68.7691 301.967L68.7691 277.355Z"/>
	<path fill="#77CAD7" transform="scale(2 2)" d="M75.9751 284.717C79.0286 284.442 81.8921 284.444 84.9501 284.717L84.9501 295.275L75.9751 295.275L75.9751 284.717Z"/>
	<path fill="#CDD07D" transform="scale(2 2)" d="M148.954 147.719L160.876 147.719L160.876 161.096C156.92 160.765 152.917 160.989 148.954 161.096L148.954 147.719Z"/>
	<path fill="#CDD07D" transform="scale(2 2)" d="M357.091 147.719C358.808 147.862 360.615 147.737 362.342 147.719L362.342 161.096C360.596 161.045 358.839 161.089 357.091 161.096L351.422 161.096C351.434 156.635 351.318 152.181 351.422 147.719C353.317 147.785 355.196 147.769 357.091 147.719Z"/>
</svg>
